PathFileType	4	(X/Y/Z)	C:/Users/beibeiliu/ov580/test_trc/capture2\sequence.9_training_dense_left.trc
DataRate	CameraRate	NumFrames	NumMarkers	Units	OrigDataRate	OrigDataStartFrame	OrigNumFrames
120	120	10	19	mm	120	337	384
Frame#	Time	ThumbCMC			ThumbMCP			ThumbIP			ThumbTip			IndexMCP			IndexPIP			IndexTip			MiddleMCP			MiddlePIP			MiddleTip			RingMCP			RingPIP			RingTip			PinkyMCP			PinkyPIP			PinkyTip			BackHand1			BackHand2			BackHand3	
		X0	Y0	Z0	X1	Y1	Z1	X2	Y2	Z2	X3	Y3	Z3	X4	Y4	Z4	X5	Y5	Z5	X6	Y6	Z6	X7	Y7	Z7	X8	Y8	Z8	X9	Y9	Z9	X10	Y10	Z10	X11	Y11	Z11	X12	Y12	Z12	X13	Y13	Z13	X14	Y14	Z14	X15	Y15	Z15	X16	Y16	Z16	X17	Y17	Z17	X18	Y18	Z18	
336	2.8	-122.797	35.7377	-20.4136	-108.037	50.9631	-29.8098	-97.6819	73.4905	-38.2462	-97.8335	86.6281	-60.8092	-150.393	78.721	-73.3912	-159.165	94.9605	-94.8777	-170.683	107.88	-112.8	-173.621	77.3748	-81.1668	-177.152	89.9786	-97.3592	-190.216	106.069	-120.071	-191.322	60.224	-81.1076	-197.654	73.8882	-98.3668	-201.67	91.5666	-116.113	-193.725	41.7994	-74.8419	-200.016	58.3778	-94.0297	-208.328	72.8879	-104.438	-182.706	36.3558	-35.9691	-181.461	22.2798	-12.0012	-155.091	42.927	-19.9761	
337	2.80833	-120.671	40.1898	-17.0435	-101.807	54.8625	-23.6748	-90.3418	74.9478	-37.145	-91.4976	82.4538	-64.8326	-147.957	80.4826	-72.2926	-150.182	96.9386	-89.3989	-159.078	114.065	-108.021	-167.039	81.7956	-79.1338	-172.611	97.0928	-97.3545	-179.8	115.649	-117.315	-183.641	66.014	-80.355	-188.646	81.2401	-99.3147	-194.884	99.9993	-121.147	-193.511	49.1545	-77.3416	-194.742	61.6003	-88.4363	-202.72	81.9501	-100.04	-181.551	41.5655	-41.0637	-176.451	25.2546	-12.8095	-152.248	49.3023	-21.3525	
338	2.81667	-116.875	26.9627	-16.5982	-96.3813	43.7077	-23.4149	-83.2788	66.082	-32.0326	-80.6796	77.3296	-52.4065	-136.769	82.7382	-66.8158	-135.079	98.6695	-83.3224	-142.071	119.011	-102.891	-151.977	82.5014	-71.1951	-152.717	99.4727	-90.6039	-151.546	121.272	-113.537	-168.216	75.501	-77.5211	-174.494	88.2047	-96.127	-172.732	104.27	-112.194	-182.72	55.5031	-72.2223	-183.502	69.5656	-89.1667	-184.837	90.4679	-100.823	-173.541	42.9822	-31.7228	-170.754	24.5776	-9.90837	-141.133	43.3108	-16.4923	
339	2.825	-110.287	37.9456	-14.0086	-93.9175	50.022	-23.6032	-79.4146	69.8195	-35.2182	-76.4373	80.2841	-59.35	-129.018	85.9962	-66.4342	-127.258	103.785	-83.9147	-132.115	122.107	-100.823	-150.912	88.3662	-75.2171	-151.47	105.105	-92.7694	-157.557	123.529	-113.999	-168.257	74.5795	-75.7096	-174.827	87.1959	-93.9184	-175.523	109.081	-113.873	-184.37	57.1351	-74.0252	-180.379	72.0924	-90.1759	-185.053	89.5766	-101.101	-170.687	48.4266	-32.8184	-167.575	29.5956	-7.12795	-143.86	47.4434	-18.9619	
340	2.83333	-111.717	25.1134	-13.2531	-90.5148	38.751	-19.1931	-74.8975	62.3017	-27.7786	-63.6315	80.6778	-41.168	-119.099	86.9802	-58.0057	-118.639	103.288	-74.2177	-119.132	123.908	-94.6437	-140.12	90.4298	-66.1199	-134.512	107.535	-84.8596	-135.451	128.178	-102.75	-160.992	80.0631	-70.8888	-157.699	98.0033	-88.6035	-155.162	118.764	-104.289	-171.789	68.0122	-68.1244	-169.316	83.9684	-86.5753	-164.223	99.4173	-98.4059	-164.339	47.9552	-26.5101	-164.029	27.904	-5.59405	-137.881	46.3535	-13.5601	
341	2.84167	-106.848	29.6898	-10.3465	-84.673	40.5018	-18.6405	-71.0768	55.1592	-26.2297	-53.6659	74.2528	-38.6046	-113.644	86.9548	-57.5712	-109.756	103.361	-74.6936	-104.371	124.974	-88.4227	-138.244	90.9805	-66.4049	-132.085	106.896	-82.2621	-132.56	128.385	-101.859	-154.356	78.7134	-68.6749	-156.598	98.6176	-88.4063	-155.65	117.484	-101.743	-172.31	64.6783	-68.8316	-169.022	81.5519	-87.0951	-165.021	98.4095	-101.144	-166.768	50.7462	-31.2743	-166.205	34.8722	-7.95248	-136.417	47.8607	-10.5853	
342	2.85	-103.663	19.7325	-7.77797	-82.8247	34.5342	-17.1627	-66.5192	49.3932	-22.2475	-48.9463	66.5194	-27.1454	-107.224	83.9179	-52.3378	-104.751	99.3499	-67.9277	-101.684	121.781	-84.4652	-122.944	88.6346	-57.3121	-119.587	107.055	-78.294	-115.286	126.35	-94.9228	-143.664	84.9852	-66.1928	-143.316	100.457	-83.1693	-136.767	118.883	-98.6584	-159.241	69.158	-64.1545	-152.501	84.376	-78.9709	-154.417	103.172	-89.532	-159.205	51.429	-22.4901	-159.323	28.7166	-3.48861	-127.082	42.1931	-9.06155	
343	2.85833	-102.129	21.5986	-4.5592	-80.0397	30.4227	-14.9242	-59.3638	46.916	-22.8642	-45.042	61.4786	-30.6787	-103.299	78.6598	-49.8443	-93.9702	97.9506	-67.0997	-96.1484	117.868	-82.9977	-118.882	87.7346	-60.5634	-115.867	105.656	-78.7038	-112.949	126.136	-94.756	-141.442	78.5416	-63.8957	-133.972	93.8565	-77.32	-130.386	118.328	-93.3287	-154.413	65.4221	-62.1619	-148.881	85.7445	-77.706	-141.612	104.772	-88.5607	-150.107	51.0042	-25.9241	-156.647	35.1401	-3.213	-126.865	47.0416	-6.68415	
344	2.86667	-97.705	18.6172	-4.98232	-72.0451	31.9385	-9.50963	-56.6152	46.5967	-16.0772	-38.9544	64.047	-25.4303	-89.2479	76.7369	-52.3587	-88.5188	95.727	-68.2627	-86.1437	114.235	-82.5911	-107.47	87.976	-59.9633	-106.875	105.557	-78.0925	-103.323	124.416	-94.8543	-126.377	83.3071	-64.9543	-126.902	99.6092	-79.6595	-119.82	118.001	-91.9549	-146.242	69.5985	-60.7843	-139.858	88.3065	-76.3059	-134.709	109.3	-90.5561	-145.88	54.3283	-26.9906	-150.107	35.2311	-5.02786	-116.989	43.5668	-7.97493	
345	2.875	-93.1501	15.4471	-3.9155	-71.0528	30.6962	-11.8253	-52.9776	44.4094	-18.3357	-36.139	56.2899	-21.3665	-90.1409	76.6312	-52.9087	-82.916	95.4493	-67.9359	-83.4147	118.326	-82.5067	-106.761	86.1118	-60.4524	-102.979	101.514	-76.6131	-96.2838	125.529	-96.2939	-121.718	81.4096	-65.9876	-119.708	94.1283	-79.6906	-114.483	115.594	-95.0898	-143.716	73.0482	-66.7636	-135.061	82.8249	-77.7864	-130.541	103.002	-87.5224	-139.582	50.6164	-25.4627	-148.258	33.6039	-5.37651	-113.523	41.0004	-8.3226	
